<svg width="42" height="42" viewBox="0 0 42 42" fill="none" xmlns="http://www.w3.org/2000/svg">
<g clip-path="url(#clip0_5_2108)">
<path d="M29.8943 13.7197L24.5504 19.0635L26.6142 21.1274L31.9581 15.7835L29.8943 13.7197Z" fill="#1CC8FF"/>
<path d="M19.0932 24.5215L13.7494 29.8654L15.8132 31.9292L21.1571 26.5854L19.0932 24.5215Z" fill="#1CC8FF"/>
<path d="M26.5019 10.3258L21.158 15.6696L23.2218 17.7334L28.5657 12.3896L26.5019 10.3258Z" fill="#1CC8FF"/>
<path d="M15.7009 21.1276L10.3571 26.4715L12.4209 28.5353L17.7647 23.1915L15.7009 21.1276Z" fill="#1CC8FF"/>
<path d="M12.4197 13.7216L10.3558 15.7854L15.6997 21.1292L17.7635 19.0654L12.4197 13.7216Z" fill="#1CC8FF"/>
<path d="M15.8135 10.3291L13.7497 12.3929L19.0935 17.7368L21.1574 15.6729L15.8135 10.3291Z" fill="#1CC8FF"/>
<path d="M26.6154 21.1301L24.5516 23.1939L29.8954 28.5378L31.9592 26.4739L26.6154 21.1301Z" fill="#1CC8FF"/>
<path d="M23.2215 24.5256L21.1577 26.5895L26.5016 31.9333L28.5654 29.8695L23.2215 24.5256Z" fill="#1CC8FF"/>
<path d="M15.8133 31.9296L13.75 33.9929L21.1571 41.4L28.5642 33.9929L26.5009 31.9296L21.1571 37.2734L15.8133 31.9296Z" fill="#1CC8FF"/>
<path d="M10.3561 15.7848L8.29279 13.7215L0.885681 21.1286L8.29279 28.5357L10.3561 26.4724L5.01232 21.1286L10.3561 15.7848Z" fill="#1CC8FF"/>
<path d="M34.0215 13.7215L31.9581 15.7848L37.3019 21.1286L31.9581 26.4724L34.0215 28.5357L41.4286 21.1286L34.0215 13.7215Z" fill="#1CC8FF"/>
<path d="M26.5009 10.3276L28.5642 8.26424L21.1571 0.85714L13.75 8.26424L15.8133 10.3276L21.1571 4.98378L26.5009 10.3276Z" fill="#1CC8FF"/>
</g>
<defs>
<clipPath id="clip0_5_2108">
<rect width="40.5429" height="40.5429" fill="white" transform="translate(0.88562 0.857147)"/>
</clipPath>
</defs>
</svg>
